<svg xmlns="http://www.w3.org/2000/svg" viewBox="0 0 512 512">
  <rect width="512" height="512" rx="112" fill="#0f172a"/>
  <path d="M256 96 L388 166 L388 302 C388 396 256 446 256 446 C256 446 124 396 124 302 L124 166 Z" fill="#22c55e"/>
  <path d="M256 130 L362 192 L362 294 C362 374 256 416 256 416 C256 416 150 374 150 294 L150 192 Z" fill="#16a34a" opacity="0.45"/>
  <path d="M256 168 L336 212 L336 290 C336 348 256 378 256 378 C256 378 176 348 176 290 L176 212 Z" fill="#15803d" opacity="0.3"/>
</svg>
